<?xml version="1.0" encoding="utf-8"?>
<!-- Generator: Adobe Illustrator 19.2.0, SVG Export Plug-In . SVG Version: 6.00 Build 0)  -->
<svg version="1.0" id="Layer_1" xmlns="http://www.w3.org/2000/svg" xmlns:xlink="http://www.w3.org/1999/xlink" x="0px" y="0px"
	 width="124px" height="124px" viewBox="0 0 124 124" enable-background="new 0 0 124 124" xml:space="preserve">
<path fill="#FFFFFF" d="M62,0C27.76,0,0,27.76,0,62s27.76,62,62,62s62-27.76,62-62S96.24,0,62,0z M62,123
	c-19.08,0-36.11-8.76-47.3-22.48l0.01-0.01c3.24-1.21,6.52-2.35,9.8-3.46c5.25-1.77,10.55-3.45,15.88-4.96
	c1.24-0.35,2.49-0.69,3.74-1.02c1.27-0.34,2.51-0.92,3.03-2.21c0.3-0.74,0.29-1.52,0.29-2.31v-0.64c-0.01-1.18,0-2.37-0.11-3.54
	c-0.07-0.77-0.19-1.8-0.56-2.48c-0.36-0.67-0.69-1.38-0.99-2.08C45.38,76.89,45,75.95,44.65,75c-0.17-0.45-0.33-0.91-0.48-1.36
	c-0.41-1.23-0.86-2.71-0.97-4.01l-0.02-0.27l-0.16-0.22c-1.72-2.45-3.07-5.59-3.85-8.49c-0.7-2.61-1.16-5.86-0.44-8.5
	c0.2-0.74,0.23-1.67,0.24-2.43c0.01-1.04-0.02-2.09-0.08-3.12c-0.1-1.89-0.26-3.79-0.47-5.68v-0.04l-0.01-0.05
	c-0.75-3.65-0.17-7.61,1.25-11.02c1.45-3.47,3.86-6.63,7.02-8.7c4.51-2.94,9.79-4.48,15.17-4.48c5.37,0,10.66,1.54,15.16,4.48
	c3.17,2.07,5.58,5.23,7.02,8.7c1.43,3.41,2.01,7.37,1.26,11.02l-0.01,0.05l-0.01,0.04c-0.2,1.89-0.36,3.79-0.46,5.68
	c-0.06,1.03-0.1,2.08-0.08,3.12c0.01,0.76,0.04,1.69,0.24,2.43c0.72,2.64,0.26,5.89-0.44,8.5c-0.78,2.9-2.13,6.04-3.85,8.49
	l-0.16,0.22l-0.02,0.27c-0.11,1.3-0.56,2.77-0.97,4.01c-0.15,0.45-0.32,0.91-0.48,1.36c-0.35,0.95-0.73,1.89-1.14,2.81
	c-0.31,0.7-0.63,1.41-0.99,2.08c-0.37,0.68-0.49,1.71-0.56,2.48c-0.11,1.17-0.1,2.36-0.11,3.54v0.64c0,0.79-0.01,1.57,0.29,2.31
	c0.52,1.29,1.76,1.87,3.03,2.21c1.5,0.4,2.99,0.81,4.48,1.23c5.24,1.5,10.43,3.14,15.59,4.87c3.18,1.07,6.36,2.16,9.5,3.32
	l0.06,0.16C98.01,114.29,81.02,123,62,123z M79.82,90.1c-2.59-0.69-2.58-1.9-2.57-3.54v-0.64c0-1.16,0.01-2.39,0.1-3.46
	c0.08-0.91,0.22-1.67,0.44-2.09c0.71-1.3,1.87-3.97,2.69-6.42c0.52-1.55,0.92-3.07,1.02-4.23c1.61-2.3,3.11-5.54,3.99-8.81
	c0.86-3.17,1.15-6.43,0.45-9.02c-0.59-2.15,0.22-9.85,0.33-10.86c0.76-3.72,0.24-7.87-1.31-11.61c-1.53-3.66-4.07-6.98-7.4-9.15
	c-4.74-3.09-10.23-4.64-15.71-4.64c-5.48,0-10.97,1.55-15.71,4.64c-3.33,2.17-5.87,5.49-7.4,9.15c-1.56,3.74-2.08,7.89-1.31,11.61
	c0.11,1.01,0.92,8.71,0.33,10.86c-0.7,2.59-0.41,5.85,0.44,9.02c0.89,3.27,2.39,6.51,4,8.81c0.1,1.16,0.5,2.68,1.02,4.23
	c0.82,2.45,1.98,5.12,2.68,6.42c0.23,0.42,0.36,1.18,0.44,2.09c0.1,1.07,0.11,2.3,0.11,3.46v0.64c0.01,1.64,0.02,2.85-2.58,3.54
	c-12.53,3.32-25.78,8.08-29.84,9.59C5.87,89.31,1,76.23,1,62C1,28.31,28.31,1,62,1s61,27.31,61,61c0,14.24-4.88,27.34-13.06,37.72
	C105.88,98.21,92.36,93.42,79.82,90.1z"/>
<path fill="#414957" d="M119.47,97.55c-6.06-6.06-15.87-6.06-21.93,0c-6.05,6.05-6.05,15.86,0.01,21.92
	c6.05,6.05,15.86,6.05,21.91,0C125.51,113.41,125.51,103.59,119.47,97.55z"/>
<g>
	<path fill="#FFFFFF" d="M113.99,103.48l-1.57-0.01l-1.51-2.24c-0.09-0.14-0.25-0.23-0.41-0.23h-4.06c-0.16,0-0.31,0.09-0.4,0.22
		l-1.56,2.25l-1.46,0.01c-1.1,0-2.01,0.9-2.01,2.01v7.49c0,1.1,0.91,2.02,2.01,2.02H114c1.1,0,2.01-0.92,2.01-2.02v-7.49
		C116,104.39,115.09,103.48,113.99,103.48z M113.99,114.01h-10.98c-0.56,0-1.02-0.48-1.02-1.04v-7.49c0-0.56,0.46-1.02,1.02-1.02
		h1.72c0.16,0,0.31-0.09,0.4-0.22l1.56-2.25h3.54l1.5,2.24c0.09,0.13,0.25,0.22,0.4,0.22l1.85,0.02c0.56,0,1.02,0.46,1.02,1.02v7.49
		h0.01C115.01,113.54,114.55,114.01,113.99,114.01z"/>
	<path fill="#FFFFFF" d="M108.51,105.01c-1.94,0-3.5,1.57-3.5,3.49s1.57,3.49,3.5,3.49s3.5-1.57,3.5-3.49
		S110.44,105.01,108.51,105.01z M108.51,111.01c-1.38,0-2.51-1.13-2.51-2.51s1.13-2.51,2.51-2.51s2.51,1.13,2.51,2.51
		C111.02,109.89,109.89,111.01,108.51,111.01z"/>
</g>
</svg>
