<?xml version="1.0" encoding="utf-8"?>
<!-- Generator: Adobe Illustrator 19.2.0, SVG Export Plug-In . SVG Version: 6.00 Build 0)  -->
<svg version="1.0" id="Layer_1" xmlns="http://www.w3.org/2000/svg" xmlns:xlink="http://www.w3.org/1999/xlink" x="0px" y="0px"
	 width="32px" height="32px" viewBox="0 0 32 32" enable-background="new 0 0 32 32" xml:space="preserve">
<g>
	<path d="M8.5,10h15c0.28,0,0.5-0.22,0.5-0.5C24,9.22,23.78,9,23.5,9h-15C8.22,9,8,9.22,8,9.5C8,9.78,8.22,10,8.5,10z"/>
	<path d="M23.5,16h-15C8.22,16,8,16.22,8,16.5C8,16.78,8.22,17,8.5,17h15c0.28,0,0.5-0.22,0.5-0.5C24,16.22,23.78,16,23.5,16z"/>
	<path d="M23.5,23h-15C8.22,23,8,23.22,8,23.5C8,23.78,8.22,24,8.5,24h15c0.28,0,0.5-0.22,0.5-0.5C24,23.22,23.78,23,23.5,23z"/>
</g>
</svg>
