<?xml version="1.0" encoding="utf-8"?>
<!-- Generator: Adobe Illustrator 19.2.0, SVG Export Plug-In . SVG Version: 6.00 Build 0)  -->
<svg version="1.0" id="Layer_1" xmlns="http://www.w3.org/2000/svg" xmlns:xlink="http://www.w3.org/1999/xlink" x="0px" y="0px"
	 width="32px" height="32px" viewBox="0 0 32 32" enable-background="new 0 0 32 32" xml:space="preserve">
<path d="M26,7.01h-3v-1.5c0-0.27-0.22-0.5-0.5-0.5c-0.27,0-0.5,0.23-0.5,0.5v1.5h-5v-1.5c0-0.27-0.22-0.5-0.5-0.5
	c-0.27,0-0.5,0.23-0.5,0.5v1.5h-5v-1.5c0-0.27-0.22-0.5-0.5-0.5c-0.27,0-0.5,0.23-0.5,0.5v1.5H7c-1.1,0-2,0.9-2,1.99v15
	c0,1.1,0.9,2,2,2h19c1.1,0,2-0.9,2-2V9C28,7.91,27.1,7.01,26,7.01z M27,24c0,0.55-0.45,1-1,1H7c-0.55,0-1-0.45-1-1v-9.99h21V24z
	 M27,13.01H6V9c0-0.54,0.45-0.99,1-0.99h3V9.5c0,0.28,0.23,0.5,0.5,0.5c0.28,0,0.5-0.22,0.5-0.5V8.01h5V9.5c0,0.28,0.23,0.5,0.5,0.5
	c0.28,0,0.5-0.22,0.5-0.5V8.01h5V9.5c0,0.28,0.23,0.5,0.5,0.5c0.28,0,0.5-0.22,0.5-0.5V8.01h3c0.55,0,1,0.45,1,0.99V13.01z"/>
</svg>
