<?xml version="1.0" encoding="utf-8"?>
<!-- Generator: Adobe Illustrator 19.2.0, SVG Export Plug-In . SVG Version: 6.00 Build 0)  -->
<svg version="1.0" id="Layer_1" xmlns="http://www.w3.org/2000/svg" xmlns:xlink="http://www.w3.org/1999/xlink" x="0px" y="0px"
	 width="32px" height="32px" viewBox="0 0 32 32" enable-background="new 0 0 32 32" xml:space="preserve">
<g>
	<path fill-rule="evenodd" clip-rule="evenodd" fill="#868E99" d="M20.51,22.01H24v-3.5c0-0.28,0.22-0.5,0.5-0.5l0,0
		c0.27,0,0.5,0.22,0.5,0.5v4l0,0c0,0.28-0.23,0.5-0.5,0.5l0,0h-4c-0.28,0-0.5-0.22-0.5-0.5l0,0C20,22.24,20.23,22.01,20.51,22.01
		L20.51,22.01z M26,12.01H5V8c0-0.54,0.45-0.99,1-0.99H9v1.49c0,0.28,0.23,0.5,0.5,0.5l0,0c0.28,0,0.5-0.22,0.5-0.5V7.01h5v1.49
		c0,0.28,0.23,0.5,0.5,0.5l0,0c0.28,0,0.5-0.22,0.5-0.5V7.01h5v1.49c0,0.28,0.23,0.5,0.5,0.5l0,0c0.28,0,0.5-0.22,0.5-0.5V7.01h3
		c0.55,0,1,0.45,1,0.99V12.01z M5,13.01h21v3.34c-0.63-0.22-1.3-0.34-2-0.34c-3.32,0-6,2.69-6,6c0,0.7,0.12,1.37,0.34,2H6
		c-0.55,0-1-0.45-1-1V13.01z M16,6.01v-1.5c0-0.27-0.22-0.5-0.5-0.5l0,0c-0.27,0-0.5,0.23-0.5,0.5v1.5h-5v-1.5
		c0-0.27-0.22-0.5-0.5-0.5l0,0C9.23,4.01,9,4.24,9,4.51v1.5H6c-1.1,0-2,0.9-2,1.99v15.01c0,1.1,0.9,2,2,2h12.8
		c1.04,1.79,2.97,2.99,5.2,2.99c3.32,0,6-2.68,6-6c0-2.21-1.2-4.16-2.99-5.2V8c0-1.09-0.9-1.99-2-1.99h-3v-1.5
		c0-0.27-0.22-0.5-0.5-0.5l0,0c-0.27,0-0.5,0.23-0.5,0.5v1.5H16z M24,27.02c-2.76,0-5-2.24-5-5.01c0-2.75,2.23-5,5-5s5,2.24,5,5
		C29,24.77,26.77,27.02,24,27.02L24,27.02z"/>
</g>
</svg>
