<?xml version="1.0" encoding="utf-8"?>
<!-- Generator: Adobe Illustrator 19.2.0, SVG Export Plug-In . SVG Version: 6.00 Build 0)  -->
<svg version="1.0" id="Layer_1" xmlns="http://www.w3.org/2000/svg" xmlns:xlink="http://www.w3.org/1999/xlink" x="0px" y="0px"
	 width="32px" height="32px" viewBox="0 0 32 32" enable-background="new 0 0 32 32" xml:space="preserve">
<path fill="#FAC414" d="M16.51,1.01C7.94,1.01,1,7.95,1,16.51C1,25.06,7.94,32.01,16.51,32C25.06,32,32,25.06,32,16.51
	C32,7.95,25.06,1.01,16.51,1.01z M16.5,31.02c-4.15,0-7.89-1.74-10.54-4.54c1.17-0.43,3.55-1.25,6.31-1.98
	c1.39-0.37,1.39-1,1.38-1.86v-0.15c0-0.31,0-0.64-0.03-0.94c-0.03-0.35-0.1-0.67-0.23-0.91c-0.15-0.29-0.41-0.88-0.59-1.44
	c-0.13-0.38-0.22-0.72-0.21-0.87l0.01-0.19l-0.11-0.15c-0.37-0.47-0.72-1.22-0.92-1.97c-0.17-0.64-0.24-1.26-0.11-1.73
	c0.2-0.75-0.06-3.08-0.06-3.09v-0.03l-0.01-0.02c-0.15-0.73-0.05-1.56,0.27-2.32c0.31-0.74,0.81-1.4,1.46-1.82
	c1.01-0.66,2.19-0.99,3.37-0.99s2.36,0.33,3.38,0.99c0.65,0.42,1.15,1.08,1.46,1.82c0.31,0.76,0.42,1.59,0.26,2.32v0.02v0.03
	c0,0.01-0.27,2.34-0.06,3.09c0.12,0.47,0.06,1.09-0.11,1.73c-0.21,0.75-0.56,1.5-0.92,1.97l-0.12,0.15l0.02,0.19
	c0.01,0.15-0.08,0.49-0.21,0.87c-0.19,0.56-0.44,1.15-0.6,1.44c-0.13,0.24-0.19,0.56-0.22,0.91c-0.03,0.3-0.03,0.63-0.03,0.94v0.15
	c-0.01,0.86-0.02,1.49,1.38,1.86c2.77,0.72,5.14,1.55,6.31,1.98C24.39,29.27,20.65,31.02,16.5,31.02z M20.97,23.52
	c-0.64-0.17-0.64-0.47-0.64-0.88v-0.16c0-0.28,0.01-0.59,0.03-0.86c0.02-0.22,0.05-0.41,0.11-0.52c0.17-0.32,0.46-0.98,0.67-1.59
	c0.13-0.39,0.22-0.77,0.25-1.05c0.4-0.58,0.77-1.38,0.99-2.2c0.22-0.78,0.29-1.59,0.11-2.24c-0.14-0.53,0.06-2.45,0.09-2.7
	c0.19-0.92,0.06-1.96-0.33-2.88c-0.38-0.92-1.01-1.74-1.84-2.28c-1.18-0.77-2.54-1.15-3.92-1.15c-1.36,0-2.72,0.38-3.91,1.15
	c-0.83,0.54-1.46,1.36-1.84,2.28c-0.39,0.92-0.52,1.96-0.33,2.88c0.03,0.25,0.23,2.17,0.08,2.7c-0.17,0.65-0.1,1.46,0.11,2.24
	c0.22,0.82,0.6,1.62,1,2.2c0.02,0.28,0.12,0.66,0.25,1.05c0.21,0.61,0.49,1.27,0.67,1.59c0.06,0.11,0.09,0.3,0.11,0.52
	c0.02,0.27,0.02,0.58,0.02,0.86v0.16c0.01,0.41,0.01,0.71-0.64,0.88c-3.12,0.83-5.75,1.77-6.75,2.14C3.22,23.17,2,19.99,2,16.51
	C2,8.5,8.49,2.01,16.51,2.01c8,0,14.5,6.49,14.5,14.5c0,3.48-1.23,6.66-3.27,9.16C26.73,25.29,24.09,24.35,20.97,23.52z"/>
</svg>
