<?xml version="1.0" encoding="utf-8"?>
<!-- Generator: Adobe Illustrator 19.2.0, SVG Export Plug-In . SVG Version: 6.00 Build 0)  -->
<svg version="1.0" id="Layer_1" xmlns="http://www.w3.org/2000/svg" xmlns:xlink="http://www.w3.org/1999/xlink" x="0px" y="0px"
	 width="32px" height="32px" viewBox="0 0 32 32" enable-background="new 0 0 32 32" xml:space="preserve">
<g>
	<path fill="#FAC414" d="M23.51,16h-6.5V9.5c0-0.28-0.23-0.5-0.5-0.5C16.22,9,16,9.22,16,9.5V16H9.5C9.22,16,9,16.22,9,16.5
		C9,16.77,9.22,17,9.5,17h6.51v6.5c0,0.27,0.22,0.5,0.5,0.5c0.27,0,0.5-0.23,0.5-0.5V17h6.5c0.27,0,0.5-0.23,0.5-0.5
		C24.01,16.22,23.78,16,23.51,16z"/>
	<path fill="#FAC414" d="M16.51,1C7.94,1,1,7.94,1,16.51C1,25.06,7.94,32,16.51,32C25.06,32,32,25.06,32,16.51
		C32,7.94,25.06,1,16.51,1z M16.51,31c-8.01,0-14.5-6.5-14.5-14.5C2,8.49,8.49,2,16.51,2c8,0,14.5,6.49,14.5,14.5
		C31.01,24.5,24.51,31,16.51,31z"/>
</g>
</svg>
