<?xml version="1.0" encoding="utf-8"?>
<!-- Generator: Adobe Illustrator 19.2.0, SVG Export Plug-In . SVG Version: 6.00 Build 0)  -->
<svg version="1.0" id="Layer_1" xmlns="http://www.w3.org/2000/svg" xmlns:xlink="http://www.w3.org/1999/xlink" x="0px" y="0px"
	 width="32px" height="32px" viewBox="0 0 32 32" enable-background="new 0 0 32 32" xml:space="preserve">
<path d="M26,22c-1.1,0-2-0.9-2-2v-6c0-2.83-1.77-7.43-7-8V5c0-0.55-0.45-1-1-1s-1,0.45-1,1v1.05c-5.23,0.52-7,5.12-7,8v6
	c0,1.1-0.9,2-2,2c-0.55,0-1,0.45-1,1c0,0.55,0.45,1,1,1h7c0,1.66,1.34,3,3,3s3-1.34,3-3h7V24c0.55,0,1-0.45,1-1S26.55,22,26,22z
	 M16,26c-1.1,0-2-0.9-2-2h4C18,25.1,17.1,26,16,26z M14,23H6c0.5-0.01,1-0.14,1.45-0.36C8.44,22.14,9.05,21.11,9,20v-6
	c0.01-1.54,0.48-3.04,1.35-4.31C11.44,8.12,13.19,7.13,15.1,7H16h0.9c1.91,0.14,3.66,1.14,4.74,2.73c0.87,1.26,1.34,2.74,1.36,4.27
	v6c-0.05,1.11,0.55,2.15,1.55,2.65C25,22.87,25.5,22.99,26,23H14z"/>
</svg>
