<?xml version="1.0" encoding="utf-8"?>
<!-- Generator: Adobe Illustrator 19.2.0, SVG Export Plug-In . SVG Version: 6.00 Build 0)  -->
<svg version="1.1" id="logo" xmlns="http://www.w3.org/2000/svg" xmlns:xlink="http://www.w3.org/1999/xlink" x="0px" y="0px"
	 width="208px" height="80px" viewBox="0 0 208 80" style="enable-background:new 0 0 208 80;" xml:space="preserve">
<style type="text/css">
	.st0{fill:#FAC414;}
	.st1{fill:#FFFFFF;}
</style>
<g>
	<ellipse id="Ellipse_1_copy_24" class="st0" cx="35.3" cy="44.6" rx="35.3" ry="35.4"/>
	<polygon class="st1" points="58.3,8.9 53.7,3.8 52,5.4 57.2,9.9 	"/>
	<polygon class="st1" points="64.9,6.8 65.3,0 63,0 63.4,6.8 	"/>
	<polygon class="st1" points="70.1,23.4 74.6,28.5 76.3,26.8 71.1,22.3 	"/>
	<polygon class="st1" points="73.2,15.4 73.2,16.9 80,17.3 80,14.9 	"/>
	<polygon class="st1" points="76.3,5.4 74.6,3.8 70.1,8.9 71.1,9.9 	"/>
	<path class="st1" d="M55,20.4L35.3,38.9l0,0L22.1,27.6c-1.6,1-2.9,2.4-3.9,3.9l17.1,20l0,0l24.3-26.4C58.3,23.4,56.7,21.8,55,20.4z
		"/>
	<path class="st1" d="M62.8,13.2l-4.7,4.3c1.6,1.4,3.1,2.9,4.5,4.5l4.3-4.8c1.1-1.1,1.1-3,0-4.1S63.9,12,62.8,13.2L62.8,13.2z"/>
	<path class="st1" d="M34.3,38.5L34.3,38.5L34.3,38.5z"/>
	<path class="st1" d="M34.3,51.1L34.3,51.1L34.3,51.1z"/>
	<path class="st1" d="M34.3,51.1L34.3,51.1L34.3,51.1z"/>
</g>
<g>
	<path class="st1" d="M121.5,32.3c-1.4-0.1-2.5,1-2.6,2.4l-2.7,13.8h-0.1l-4.2-14.2c-0.2-0.6-0.5-1-0.9-1.4c-0.5-0.3-1-0.5-1.6-0.5
		s-1.1,0.2-1.6,0.5c-0.5,0.4-0.8,0.8-1,1.4l-4.2,14.2h-0.1l-2.7-13.8c-0.1-1.4-1.2-2.4-2.6-2.4c-0.6,0-1.2,0.2-1.7,0.7
		c-0.4,0.4-0.7,0.9-0.7,1.5c0,0.4,0,0.8,0.1,1.1L99,53.3c0.1,0.7,0.5,1.4,1,1.8c0.6,0.5,1.3,0.7,2.1,0.7c1.5,0.1,2.8-0.9,3.2-2.3
		l3.8-12.5h0.1l3.7,12.5c0.2,0.7,0.6,1.3,1.2,1.7s1.3,0.7,2,0.7c0.8,0,1.5-0.2,2.1-0.7c0.5-0.5,0.9-1.1,1-1.8l4.1-17.7
		c0.1-0.4,0.1-0.8,0.1-1.1c0-0.6-0.2-1.1-0.6-1.5C122.7,32.5,122.1,32.3,121.5,32.3z"/>
	<rect x="128.3" y="38.8" class="st1" width="4.8" height="17"/>
	<path class="st1" d="M149.2,41.9c-1.4-0.5-2.7-0.9-3.9-1.3s-1.8-1-1.8-1.7c0-0.6,0.3-1.2,0.8-1.6c0.5-0.4,1.2-0.6,1.9-0.6
		c0.4,0,0.8,0,1.2,0.1s0.7,0.2,1,0.3c0.4,0.1,0.7,0.3,1,0.4c0.3,0.1,0.6,0.1,0.9,0.2c0.4,0,0.8-0.1,1.1-0.3s0.6-0.5,0.8-0.9
		s0.3-0.8,0.3-1.2c0-0.6-0.2-1.2-0.7-1.6c-0.5-0.5-1-0.8-1.7-1s-1.4-0.4-2.1-0.5c-0.6-0.1-1.2-0.2-1.9-0.2c-1.1,0-2.1,0.2-3.1,0.5
		c-0.9,0.3-1.8,0.8-2.5,1.5s-1.3,1.5-1.7,2.4c-0.4,1-0.7,2-0.6,3c-0.1,1.4,0.4,2.8,1.5,3.8c1.3,1.1,2.9,1.8,4.5,2.3
		c2.1,0.6,3.4,1.1,3.9,1.3c0.6,0.3,0.9,1,0.9,1.6c0,0.5-0.1,1-0.4,1.5c-0.3,0.5-0.7,0.8-1.1,1c-0.6,0.3-1.2,0.4-1.8,0.4
		c-0.5,0-0.9-0.1-1.4-0.2c-0.5-0.1-1-0.3-1.5-0.5s-1-0.4-1.4-0.5s-0.7-0.2-1.1-0.2c-0.6,0-1.2,0.2-1.6,0.7c-0.4,0.5-0.6,1-0.6,1.7
		c0,1.3,0.8,2.3,2.5,2.8c1.7,0.6,3.5,0.8,5.3,0.8c1.4,0,2.8-0.3,4.1-0.9c1.2-0.6,2.3-1.5,3-2.6c0.8-1.2,1.1-2.6,1.1-4
		c0.1-1.6-0.4-3.2-1.5-4.4C151.8,43.1,150.6,42.3,149.2,41.9z"/>
	<path class="st1" d="M176.6,32.3c-0.7,0-1.3,0.2-1.7,0.7c-0.5,0.5-0.7,1.2-0.7,1.9v6.9h-10.1v-6.9c0-0.7-0.2-1.4-0.7-1.9
		c-1-0.9-2.5-0.9-3.5,0c-0.5,0.5-0.7,1.2-0.7,1.9v18.4c0,0.7,0.2,1.4,0.7,1.9c1,0.9,2.5,0.9,3.5,0c0.5-0.5,0.7-1.2,0.7-1.9v-7.1
		h10.1v7.1c0,0.7,0.2,1.4,0.7,1.9c1,0.9,2.5,0.9,3.5,0c0.5-0.5,0.7-1.2,0.7-1.9V34.8c0-0.7-0.2-1.4-0.7-1.9
		C177.9,32.5,177.3,32.2,176.6,32.3z"/>
	<path class="st1" d="M197,32.4h-11.9c-0.4,0-0.8,0.1-1.2,0.3c-0.3,0.2-0.6,0.5-0.8,0.8s-0.3,0.7-0.3,1.1c0,0.6,0.2,1.1,0.6,1.6
		c0.4,0.4,1,0.7,1.6,0.6h3.5v16.3c0,0.7,0.2,1.4,0.7,1.9c0.5,0.4,1.1,0.7,1.8,0.7c0.6,0,1.3-0.2,1.7-0.7c0.5-0.5,0.7-1.2,0.7-1.9
		V36.9h3.5c0.6,0,1.2-0.2,1.7-0.6c0.7-0.9,0.7-2.2,0-3.1C198.3,32.7,197.7,32.4,197,32.4z"/>
	<rect x="203.2" y="38.8" class="st1" width="4.8" height="17"/>
	<path class="st0" d="M130.7,32.3c-0.7,0-1.3,0.2-1.7,0.7c-0.5,0.5-0.7,1.2-0.7,1.9v4h4.8v-4c0-0.7-0.2-1.4-0.7-1.9
		C132,32.5,131.4,32.2,130.7,32.3z"/>
	<path class="st0" d="M207.3,32.9c-1-0.9-2.5-0.9-3.5,0c-0.5,0.5-0.7,1.2-0.7,1.9v4h4.8v-4C208,34.1,207.8,33.4,207.3,32.9z"/>
</g>
</svg>
