<?xml version="1.0" encoding="utf-8"?>
<!-- Generator: Adobe Illustrator 19.2.0, SVG Export Plug-In . SVG Version: 6.00 Build 0)  -->
<svg version="1.1" id="logo" xmlns="http://www.w3.org/2000/svg" xmlns:xlink="http://www.w3.org/1999/xlink" x="0px" y="0px"
	 width="106px" height="32px" viewBox="0 0 106 32" style="enable-background:new 0 0 106 32;" xml:space="preserve">
<style type="text/css">
	.st0{fill:#FAC414;}
	.st1{fill:#FFFFFF;}
</style>
<g>
	<ellipse id="Ellipse_1_copy_24" class="st0" cx="14.1" cy="17.8" rx="14.1" ry="14.2"/>
	<polygon class="st1" points="23.3,3.6 21.5,1.5 20.8,2.2 22.9,4 	"/>
	<polygon class="st1" points="26,2.7 26.1,0 25.2,0 25.4,2.7 	"/>
	<polygon class="st1" points="28,9.4 29.8,11.4 30.5,10.7 28.4,8.9 	"/>
	<polygon class="st1" points="29.3,6.2 29.3,6.8 32,6.9 32,6 	"/>
	<polygon class="st1" points="30.5,2.2 29.8,1.5 28,3.6 28.4,4 	"/>
	<path class="st1" d="M22,8.2l-7.9,7.4l0,0L8.8,11c-0.6,0.4-1.2,1-1.6,1.6l6.8,8l0,0L23.8,10C23.3,9.4,22.7,8.7,22,8.2z"/>
	<path class="st1" d="M25.1,5.3L23.2,7c0.6,0.6,1.2,1.2,1.8,1.8l1.7-1.9c0.4-0.4,0.4-1.2,0-1.6C26.3,4.8,25.6,4.8,25.1,5.3L25.1,5.3
		z"/>
	<path class="st1" d="M13.7,15.4L13.7,15.4L13.7,15.4z"/>
	<path class="st1" d="M13.7,20.4L13.7,20.4L13.7,20.4z"/>
	<path class="st1" d="M13.7,20.4L13.7,20.4L13.7,20.4z"/>
</g>
<g>
	<path class="st1" d="M55.4,10.2c-0.8-0.1-1.5,0.6-1.5,1.4l-1.6,8.1h-0.1l-2.5-8.3c-0.1-0.4-0.3-0.6-0.5-0.8
		c-0.3-0.2-0.6-0.3-0.9-0.3c-0.4,0-0.6,0.1-0.9,0.3c-0.3,0.2-0.5,0.5-0.6,0.8l-2.5,8.3h-0.1l-1.6-8.1c-0.1-0.8-0.7-1.4-1.5-1.4
		c-0.4,0-0.7,0.1-1,0.4c-0.2,0.2-0.4,0.5-0.4,0.9c0,0.2,0,0.5,0.1,0.6l2.4,10.4c0.1,0.4,0.3,0.8,0.6,1.1c0.4,0.3,0.8,0.4,1.2,0.4
		c0.9,0.1,1.6-0.5,1.9-1.3l2.2-7.3h0.1l2.2,7.3c0.1,0.4,0.4,0.8,0.7,1c0.4,0.2,0.8,0.4,1.2,0.4c0.5,0,0.9-0.1,1.2-0.4
		s0.5-0.6,0.6-1.1l2.4-10.4c0.1-0.2,0.1-0.5,0.1-0.6c0-0.4-0.1-0.6-0.4-0.9C56.1,10.3,55.8,10.2,55.4,10.2z"/>
	<path class="st1" d="M71.7,15.8c-0.8-0.3-1.6-0.5-2.3-0.8c-0.7-0.2-1.1-0.6-1.1-1s0.2-0.7,0.5-0.9s0.7-0.4,1.1-0.4
		c0.2,0,0.5,0,0.7,0.1s0.4,0.1,0.6,0.2c0.2,0.1,0.4,0.2,0.6,0.2c0.2,0.1,0.4,0.1,0.5,0.1c0.2,0,0.5-0.1,0.6-0.2
		c0.2-0.1,0.4-0.3,0.5-0.5s0.2-0.5,0.2-0.7c0-0.4-0.1-0.7-0.4-0.9c-0.3-0.3-0.6-0.5-1-0.6s-0.8-0.2-1.2-0.3C70.6,10,70.3,10,69.9,10
		c-0.6,0-1.2,0.1-1.8,0.3c-0.5,0.2-1.1,0.5-1.5,0.9s-0.8,0.9-1,1.4c-0.2,0.6-0.4,1.2-0.4,1.8c-0.1,0.8,0.2,1.6,0.9,2.2
		c0.8,0.6,1.7,1.1,2.6,1.3c1.2,0.4,2,0.6,2.3,0.8c0.4,0.2,0.5,0.6,0.5,0.9s-0.1,0.6-0.2,0.9c-0.2,0.3-0.4,0.5-0.6,0.6
		c-0.4,0.2-0.7,0.2-1.1,0.2c-0.3,0-0.5-0.1-0.8-0.1c-0.3-0.1-0.6-0.2-0.9-0.3c-0.3-0.1-0.6-0.2-0.8-0.3c-0.2-0.1-0.4-0.1-0.6-0.1
		c-0.4,0-0.7,0.1-0.9,0.4c-0.2,0.3-0.4,0.6-0.4,1c0,0.8,0.5,1.3,1.5,1.6c1,0.4,2.1,0.5,3.1,0.5c0.8,0,1.6-0.2,2.4-0.5
		c0.7-0.4,1.3-0.9,1.8-1.5c0.5-0.7,0.6-1.5,0.6-2.3c0.1-0.9-0.2-1.9-0.9-2.6C73.2,16.5,72.5,16,71.7,15.8z"/>
	<path class="st1" d="M87.7,10.2c-0.4,0-0.8,0.1-1,0.4c-0.3,0.3-0.4,0.7-0.4,1.1v4h-5.9v-4c0-0.4-0.1-0.8-0.4-1.1
		c-0.6-0.5-1.5-0.5-2.1,0c-0.3,0.3-0.4,0.7-0.4,1.1v10.8c0,0.4,0.1,0.8,0.4,1.1c0.6,0.5,1.5,0.5,2.1,0c0.3-0.3,0.4-0.7,0.4-1.1v-4.2
		h5.9v4.2c0,0.4,0.1,0.8,0.4,1.1c0.6,0.5,1.5,0.5,2.1,0c0.3-0.3,0.4-0.7,0.4-1.1V11.6c0-0.4-0.1-0.8-0.4-1.1
		C88.5,10.3,88.1,10.1,87.7,10.2z"/>
	<path class="st1" d="M99.7,10.2h-7c-0.2,0-0.5,0.1-0.7,0.2c-0.2,0.1-0.4,0.3-0.5,0.5s-0.2,0.4-0.2,0.6c0,0.4,0.1,0.6,0.4,0.9
		c0.2,0.2,0.6,0.4,0.9,0.4h2.1v9.5c0,0.4,0.1,0.8,0.4,1.1c0.3,0.2,0.6,0.4,1.1,0.4c0.4,0,0.8-0.1,1-0.4c0.3-0.3,0.4-0.7,0.4-1.1
		v-9.5h2.1c0.4,0,0.7-0.1,1-0.4c0.4-0.5,0.4-1.3,0-1.8C100.4,10.4,100.1,10.2,99.7,10.2z"/>
	<path class="st1" d="M106,14v-2.3c0.1-0.4-0.1-0.8-0.4-1.1c-0.6-0.5-1.5-0.5-2.1,0c-0.3,0.3-0.4,0.7-0.4,1.1V14h0.1v10h2.8V14
		L106,14z"/>
	<path class="st1" d="M60.8,10.2c-0.4,0-0.8,0.1-1,0.4c-0.3,0.3-0.4,0.7-0.4,1.1V14l0,0v9.9h2.8V14l0,0v-2.3c0-0.4-0.1-0.8-0.4-1.1
		C61.6,10.3,61.2,10.1,60.8,10.2z"/>
</g>
</svg>
